<svg width="30" height="34" viewBox="0 0 30 34" fill="none" xmlns="http://www.w3.org/2000/svg">
<path d="M9.95774 14.8816L7.55247 17.2869L12.0912 21.8256H12.0908C12.4098 22.1441 12.8423 22.3234 13.2934 22.3234C13.7446 22.3234 14.1771 22.1442 14.4961 21.8256L23.006 13.3157L20.6007 10.9104L13.2934 18.2173L9.95774 14.8816Z" fill="white"/>
<path d="M3.54218 25.2344L3.5422 25.2344C4.77605 27.1411 6.5334 28.6517 8.60372 29.586L3.54218 25.2344ZM3.54218 25.2344C2.30798 23.3273 1.64984 21.105 1.64573 18.8337V6.15332L2.97731 5.68398L2.98022 5.68296L14.3179 1.71485L14.3239 1.71279L14.9959 1.48096L15.6686 1.713L15.6739 1.71485L27.0121 5.67748L27.0156 5.67871L28.3466 6.14784L28.3466 18.8275C28.3466 18.828 28.3466 18.8284 28.3466 18.8288C28.3431 21.1013 27.6853 23.3246 26.4511 25.2322L26.4511 25.2323C25.217 27.14 23.4585 28.652 21.3871 29.5864L15.817 32.0938L15.816 32.0942L14.996 32.4641L14.1759 32.0942L14.1749 32.0938L8.60478 29.5864L3.54218 25.2344Z" stroke="white" stroke-width="2.8"/>
<path d="M9.95775 14.8816L7.55249 17.2869L12.0912 21.8256C12.4102 22.1441 12.8423 22.3234 13.2935 22.3234C13.7446 22.3234 14.1771 22.1442 14.4961 21.8256L23.006 13.3157L20.6007 10.9104L13.2935 18.2173L9.95775 14.8816Z" fill="white"/>
</svg>
