<svg width="30" height="40" viewBox="0 0 30 40" fill="none" xmlns="http://www.w3.org/2000/svg">
<path d="M21.2063 4.29028H14.5607C13.3411 1.72457 10.7754 0 7.7889 0C3.6248 0 0.26001 3.36494 0.26001 7.52889C0.26001 10.347 1.8584 12.8285 4.17152 14.1326V36.8454L7.32608 40L10.5648 36.7612L13.7614 40L16.9579 36.7612L20.1545 40L23.3932 36.7612L26.5898 40L29.7444 36.8454V12.8708L21.2063 4.29028ZM21.8374 7.90751L26.1277 12.1978L21.8374 12.1975V7.90751ZM4.12978 5.13142C4.12978 4.45838 4.67666 3.86952 5.39168 3.86952C6.06472 3.86952 6.65358 4.4164 6.65358 5.13142C6.65358 5.84642 6.1067 6.39332 5.39168 6.39332C4.67668 6.39332 4.12978 5.84644 4.12978 5.13142ZM5.1813 10.8098C5.01318 10.8098 4.80282 10.7256 4.67666 10.5994C4.38209 10.3049 4.38209 9.84247 4.67666 9.5479L9.76617 4.41648C10.0607 4.12191 10.5231 4.12191 10.8177 4.41648C11.1123 4.71105 11.1123 5.17342 10.8177 5.468L5.72818 10.5994C5.55977 10.7256 5.39166 10.8098 5.1813 10.8098ZM11.4062 9.88445C11.4062 10.5994 10.8593 11.1463 10.1443 11.1463C9.47129 11.1463 8.88243 10.5995 8.88243 9.88445C8.88243 9.2114 9.42931 8.66483 10.1443 8.66483C10.8174 8.66454 11.4062 9.21142 11.4062 9.88445ZM27.6417 35.9201L26.5902 36.9716L23.3514 33.7751L20.1549 36.9716L16.9583 33.7751L13.7196 36.9716L10.523 33.7751L7.28427 36.9716L6.23275 35.9201V14.8897C6.73739 14.9739 7.24228 15.0578 7.74694 15.0578C11.911 15.0578 15.2758 11.6929 15.2758 7.52891C15.2758 7.15043 15.2339 6.77197 15.1916 6.39319H19.7342V14.3006H27.6416L27.6417 35.9201Z" fill="white"/>
<path d="M10.1022 27.9705H23.772V30.0735H10.1022V27.9705Z" fill="white"/>
<path d="M10.1022 23.1335H23.772V25.2366H10.1022V23.1335Z" fill="white"/>
<path d="M10.1022 18.3384H23.772V20.4414H10.1022V18.3384Z" fill="white"/>
</svg>
