<svg width="34" height="34" viewBox="0 0 34 34" fill="none" xmlns="http://www.w3.org/2000/svg">
<path d="M1.00357 4.27794e-05C0.737127 -0.0010733 0.481286 0.104394 0.292683 0.293016C0.104359 0.481353 -0.00110545 0.737498 8.76802e-06 1.00396V12.8733C-0.00110723 13.1398 0.104352 13.3959 0.292683 13.5843C0.481286 13.7729 0.737134 13.8784 1.00357 13.8772H5.05603L7.12426 16.8089H7.12454C7.31147 17.0762 7.61725 17.2355 7.9437 17.2355C8.27013 17.2355 8.57592 17.0762 8.76315 16.8089L10.8294 13.8772H23.1708L25.2449 16.8089H25.2446C25.4321 17.074 25.7365 17.2313 26.061 17.2313C26.3858 17.2313 26.6901 17.074 26.8774 16.8089L28.9437 13.8772H33.0043C33.5564 13.875 34.0023 13.4255 34 12.8733V1.00394C34.0022 0.451753 33.5564 0.00228573 33.0043 0L1.00357 4.27794e-05ZM2.00187 2.00006H32V11.8773H28.4257C28.1009 11.8762 27.796 12.0327 27.6074 12.2972L26.0567 14.4984L24.506 12.2972C24.3177 12.0327 24.0128 11.8762 23.6877 11.8773H10.3121C9.98709 11.8762 9.68215 12.0327 9.49382 12.2972L7.94314 14.4984L6.39245 12.2972C6.20385 12.0327 5.89889 11.8762 5.57414 11.8773H2.00208L2.00187 2.00006ZM7.72222 3.82236C5.9439 3.82236 4.48221 5.28608 4.48221 7.06459C4.48221 8.84303 5.9439 10.3048 7.72222 10.3048C9.50054 10.3048 10.9622 8.84303 10.9622 7.06459C10.9622 5.28615 9.50054 3.82236 7.72222 3.82236ZM17.0009 3.82236C15.2226 3.82236 13.7589 5.28608 13.7589 7.06459C13.7589 8.84303 15.2225 10.3048 17.0009 10.3048C18.7793 10.3048 20.2409 8.84303 20.2409 7.06459C20.2409 5.28615 18.7792 3.82236 17.0009 3.82236ZM26.2853 3.82236C24.507 3.82236 23.0375 5.28608 23.0375 7.06459C23.0375 8.84303 24.5069 10.3048 26.2853 10.3048C28.0637 10.3048 29.5253 8.84303 29.5253 7.06459C29.5253 5.28615 28.0637 3.82236 26.2853 3.82236ZM7.72222 5.8243C8.42 5.8243 8.96236 6.36672 8.96236 7.06452C8.96236 7.76235 8.41998 8.30474 7.72222 8.30474C7.02447 8.30474 6.48209 7.76233 6.48209 7.06452C6.48209 6.36669 7.02447 5.8243 7.72222 5.8243ZM17.0009 5.8243C17.6987 5.8243 18.2411 6.36672 18.2411 7.06452C18.2411 7.76235 17.6987 8.30474 17.0009 8.30474C16.3032 8.30474 15.7608 7.76233 15.7608 7.06452C15.7608 6.36669 16.3032 5.8243 17.0009 5.8243ZM26.2853 5.8243C26.9831 5.8243 27.5255 6.36672 27.5255 7.06452C27.5255 7.76235 26.9831 8.30474 26.2853 8.30474C25.5876 8.30474 25.0393 7.76233 25.0393 7.06452C25.0393 6.36669 25.5876 5.8243 26.2853 5.8243ZM7.94292 18.498C5.52679 18.498 3.55063 20.4823 3.55063 22.8983C3.55063 24.1612 4.09859 25.2946 4.95875 26.0976C3.17651 27.1322 1.97066 29.0569 1.97066 31.2617V33.0039C1.97261 33.5539 2.41845 33.9989 2.96866 34H12.9195C13.4716 34.0022 13.921 33.5561 13.9233 33.0039V31.2617C13.9233 29.0566 12.7141 27.1319 10.9294 26.0976C11.792 25.2946 12.3434 24.1615 12.3434 22.8983C12.3434 20.4823 10.3591 18.498 7.94328 18.498H7.94292ZM26.0568 18.498C23.6409 18.498 21.6645 20.4823 21.6645 22.8983C21.6645 24.1612 22.2124 25.2946 23.0726 26.0976C21.2904 27.1322 20.0845 29.0569 20.0845 31.2617V33.0039C20.0865 33.5539 20.5323 33.9989 21.0822 34H31.0309C31.5833 34.0022 32.0328 33.5561 32.035 33.0039V31.2617C32.035 29.0566 30.8278 27.1319 29.043 26.0976C29.9057 25.2946 30.457 24.1615 30.457 22.8983C30.457 20.4823 28.4728 18.498 26.0569 18.498H26.0568ZM7.94292 20.498C9.2782 20.498 10.3412 21.563 10.3412 22.8983C10.3412 24.2337 9.2782 25.289 7.94292 25.289C6.60765 25.289 5.55243 24.2338 5.55243 22.8983C5.55243 21.5629 6.60758 20.498 7.94292 20.498ZM26.0568 20.498C27.3921 20.498 28.4551 21.563 28.4551 22.8983C28.4551 24.2337 27.3921 25.289 26.0568 25.289C24.7215 25.289 23.6663 24.2338 23.6663 22.8983C23.6663 21.5629 24.7214 20.498 26.0568 20.498ZM7.94292 27.291C10.1624 27.291 11.9212 29.0422 11.9212 31.2618V32.0001H3.97239V31.2618C3.97239 29.0422 5.72342 27.291 7.94285 27.291H7.94292ZM26.0568 27.291C28.2762 27.291 30.035 29.0422 30.035 31.2618V32.0001H22.0862V31.2618C22.0862 29.0422 23.8373 27.291 26.0567 27.291H26.0568Z" fill="white"/>
</svg>
